<?xml version="1.0" encoding="UTF-8"?>
<!DOCTYPE svg PUBLIC "-//W3C//DTD SVG 1.1//EN" "http://www.w3.org/Graphics/SVG/1.1/DTD/svg11.dtd">
<!-- Creator: CorelDRAW 2020 (64-Bit) -->
<svg xmlns="http://www.w3.org/2000/svg" xml:space="preserve" width="210mm" height="297mm" version="1.1" style="shape-rendering:geometricPrecision; text-rendering:geometricPrecision; image-rendering:optimizeQuality; fill-rule:evenodd; clip-rule:evenodd"
viewBox="0 0 21000 29700"
 xmlns:xlink="http://www.w3.org/1999/xlink"
 xmlns:xodm="http://www.corel.com/coreldraw/odm/2003">
 <defs>
  <style type="text/css">
   <![CDATA[
    .fil2 {fill:#2B2A29}
    .fil1 {fill:#2B2A29;fill-rule:nonzero}
    .fil0 {fill:#2B2A29;fill-rule:nonzero}
    .fil3 {fill:url(#id0)}
   ]]>
  </style>
  <linearGradient id="id0" gradientUnits="userSpaceOnUse" x1="4118.51" y1="7421.74" x2="6428.64" y2="10696.02">
   <stop offset="0" style="stop-opacity:1; stop-color:#0FA85D"/>
   <stop offset="1" style="stop-opacity:1; stop-color:#04613F"/>
  </linearGradient>
 </defs>
 <g id="Слой_x0020_1">
  <path class="fil0" d="M3453.05 11566.2l63.1 0 126.68 329.14 -65.17 0 -25.67 -67.84 -134.93 0 -26.28 67.84 -65.18 0 127.45 -329.14zm31.63 87.48l-44.62 113.31 89.01 0 -44.39 -113.31zm634.69 241.66l0 -329.14 51.95 0c30.18,0 52.18,1.91 66.17,5.81 19.79,5.27 35.52,14.97 47.21,29.11 11.69,14.2 17.58,30.94 17.58,50.19 0,12.53 -2.68,23.91 -7.95,34.15 -5.27,10.24 -13.91,19.87 -25.82,28.81 19.94,9.4 34.53,21.09 43.78,35.22 9.24,14.06 13.82,30.71 13.82,49.97 0,18.49 -4.81,35.3 -14.36,50.5 -9.63,15.21 -22,26.59 -37.13,34.08 -15.13,7.56 -35.99,11.3 -62.65,11.3l-92.6 0zm62.34 -269.55l0 69.68 13.98 0c15.59,0 27.2,-3.21 34.77,-9.7 7.56,-6.42 11.3,-15.21 11.3,-26.28 0,-10.32 -3.59,-18.49 -10.77,-24.6 -7.18,-6.04 -18.11,-9.1 -32.78,-9.1l-16.5 0zm0 125.61l0 84.35 15.89 0c26.36,0 44.16,-3.29 53.33,-9.86 9.17,-6.57 13.75,-16.12 13.75,-28.65 0,-14.13 -5.34,-25.36 -16.12,-33.54 -10.77,-8.17 -28.65,-12.3 -53.63,-12.3l-13.22 0zm600.23 -185.2l182 0 0 61.89 -60.06 0 0 267.25 -63.72 0 0 -267.25 -58.22 0 0 -61.89zm808.13 -8.25c46.53,0 86.57,16.88 120.03,50.57 33.54,33.7 50.27,74.81 50.27,123.24 0,48.06 -16.5,88.71 -49.58,121.94 -33.01,33.24 -73.12,49.9 -120.26,49.9 -49.43,0 -90.46,-17.12 -123.09,-51.27 -32.7,-34.15 -49.05,-74.72 -49.05,-121.71 0,-31.4 7.64,-60.36 22.85,-86.8 15.2,-26.36 36.13,-47.29 62.72,-62.72 26.67,-15.44 55.4,-23.15 86.11,-23.15zm-0.92 61.42c-30.33,0 -55.85,10.62 -76.48,31.79 -20.7,21.16 -31.02,48.06 -31.02,80.76 0,36.36 12.99,65.17 39.05,86.33 20.24,16.58 43.39,24.83 69.6,24.83 29.57,0 54.78,-10.77 75.56,-32.24 20.86,-21.47 31.25,-47.9 31.25,-79.38 0,-31.33 -10.46,-57.84 -31.48,-79.54 -20.93,-21.69 -46.45,-32.55 -76.48,-32.55zm690.62 -53.17l60.74 0 76.64 229.59 77.01 -229.59 60.59 0 55.16 329.14 -60.43 0 -35.15 -207.89 -69.68 207.89 -55.31 0 -69.38 -207.89 -35.83 207.89 -61.12 0 56.76 -329.14zm909.9 0l63.11 0 126.68 329.14 -65.18 0 -25.67 -67.84 -134.93 0 -26.28 67.84 -65.17 0 127.44 -329.14zm31.63 87.48l-44.62 113.31 89.01 0 -44.39 -113.31zm603.06 -87.48l181.99 0 0 61.89 -60.05 0 0 267.25 -63.72 0 0 -267.25 -58.22 0 0 -61.89zm892.7 0l0 329.14 -62.34 0 0 -206.06 -124 206.06 -53.87 0 0 -329.14 62.35 0 0 212.78 125.91 -212.78 51.95 0zm519.25 243.57c16.58,23.15 36.06,34.69 58.37,34.69 14.82,0 26.82,-4.2 35.99,-12.61 9.09,-8.4 13.67,-19.55 13.67,-33.46 0,-13.68 -4.43,-24.99 -13.37,-33.92 -8.94,-9.02 -27.42,-13.53 -55.46,-13.53l-13.53 0 0 -55.93 13.45 0c16.58,0 29.11,-3.82 37.74,-11.38 8.56,-7.64 12.84,-17.8 12.84,-30.64 0,-11.76 -3.59,-21.09 -10.78,-27.89 -7.1,-6.87 -16.58,-10.31 -28.42,-10.31 -13.98,0 -28.42,6.95 -43.17,20.78l-36.9 -41.18c19.79,-17.88 36.37,-28.57 49.66,-32.09 13.3,-3.51 25.6,-5.27 36.76,-5.27 26.89,0 49.43,7.79 67.76,23.45 18.26,15.67 27.43,36.76 27.43,63.34 0,11.77 -2.06,23.23 -6.18,34.38 -4.13,11.24 -15.59,23.08 -34.46,35.61 38.73,17.19 58.06,46.53 58.06,88.02 0,30.63 -10.23,55.24 -30.79,73.88 -20.55,18.56 -46.98,27.89 -79.23,27.89 -20.32,0 -38.58,-3.67 -54.7,-11.08 -16.12,-7.41 -33.7,-23.31 -52.65,-47.83l47.91 -34.92zm758.08 -243.57l63.11 0 126.68 329.14 -65.17 0 -25.67 -67.84 -134.93 0 -26.28 67.84 -65.18 0 127.44 -329.14zm31.63 87.48l-44.62 113.31 89.02 0 -44.4 -113.31zm634.69 241.66l0 -329.14 63.72 0 0 272.76 110.48 0 0 -272.76 63.27 0 0 272.76 66.93 0 0 105.44 -58.68 0 0 -49.06 -245.72 0zm1012.36 -329.14l0 329.14 -62.35 0 0 -206.06 -124 206.06 -53.86 0 0 -329.14 62.34 0 0 212.78 125.92 -212.78 51.95 0zm697.42 0l0 329.14 -62.35 0 0 -132.94 -15.66 0 -66.47 132.94 -68.46 0 74.65 -143.25c-43.17,-12.3 -64.79,-41.03 -64.79,-86.11 0,-16.12 2.29,-30.1 6.8,-41.94 4.58,-11.92 11,-22.01 19.48,-30.26 8.4,-8.25 18.11,-14.37 29.26,-18.34 11.08,-3.89 19.87,-6.19 26.44,-6.8 6.57,-0.61 24.83,-1.37 54.78,-2.44l66.32 0zm-62.35 135.69l0 -74.26 -17.19 0c-15.66,0 -26.97,0.91 -33.85,2.82 -6.8,1.84 -12.45,5.89 -16.73,12.07 -4.35,6.19 -6.49,13.83 -6.49,22.93 0,13.52 4.35,22.99 12.99,28.42 8.63,5.35 22.53,8.02 41.56,8.02l19.71 0zm1427.24 118.88l-117.06 -254.57 70.68 0 77.7 183.9 63.8 -183.9 64.48 0 -87.71 235.78c-15.05,40.19 -31.47,67.08 -49.12,80.76 -17.73,13.6 -36.6,20.4 -56.62,20.4 -32.63,0 -62.65,-15.97 -90.08,-47.91l41.18 -41.26c16.35,19.11 32.55,28.65 48.52,28.65 7.1,0 13.06,-1.67 17.65,-5.11 4.66,-3.36 10.16,-8.94 16.58,-16.74zm933.04 -196.81l-43.93 41.72c-29.87,-31.48 -63.41,-47.22 -100.78,-47.22 -31.47,0 -58.06,10.77 -79.61,32.24 -21.62,21.47 -32.39,47.9 -32.39,79.38 0,21.93 4.81,41.41 14.36,58.38 9.55,17.04 23.07,30.4 40.49,40.11 17.5,9.7 36.91,14.51 58.3,14.51 18.18,0 34.84,-3.36 49.89,-10.16 15.13,-6.8 31.71,-19.17 49.74,-37.05l42.56 44.47c-24.3,23.76 -47.3,40.26 -68.92,49.43 -21.62,9.24 -46.38,13.83 -74.11,13.83 -51.19,0 -93.14,-16.2 -125.76,-48.67 -32.63,-32.4 -48.9,-74.04 -48.9,-124.69 0,-32.86 7.41,-61.97 22.31,-87.49 14.82,-25.51 36.06,-45.99 63.8,-61.5 27.66,-15.51 57.45,-23.3 89.47,-23.3 27.12,0 53.25,5.73 78.46,17.19 25.14,11.46 46.84,27.73 65.02,48.82zm482.8 -57.76l237.01 0 0 329.14 -63.27 0 0 -270.46 -110.02 0 0 270.46 -63.72 0 0 -329.14zm741.05 0l179.7 0 0 61.43 -117.36 0 0 59.13 117.36 0 0 60.52 -117.36 0 0 86.64 117.36 0 0 61.42 -179.7 0 0 -329.14zm644.31 0l71.14 0 69.22 105.67 69.3 -105.67 71.2 0 -104.97 159.99 110.78 169.15 -71.13 0 -75.26 -114.91 -75.33 114.91 -71.21 0 111.01 -169.15 -104.75 -159.99zm862.68 0l63.11 0 126.68 329.14 -65.17 0 -25.67 -67.84 -134.93 0 -26.28 67.84 -65.18 0 127.44 -329.14zm31.64 87.48l-44.62 113.31 89.01 0 -44.39 -113.31z"/>
  <path class="fil1" d="M11308.71 7893.21l180.31 -17.91c10.87,60.32 32.61,104.44 65.65,132.79 33.03,28.35 77.58,42.42 133.64,42.42 59.25,0 104.01,-12.58 134.06,-37.73 30.05,-25.15 45.19,-54.56 45.19,-88.24 0,-21.74 -6.4,-40.07 -18.97,-55.41 -12.58,-15.14 -34.74,-28.35 -66.29,-39.44 -21.52,-7.67 -70.55,-20.89 -147.28,-40.07 -98.68,-24.72 -167.95,-54.99 -207.81,-91.01 -56.06,-50.51 -83.98,-112.11 -83.98,-184.79 0,-46.68 13.22,-90.58 39.44,-131.29 26.42,-40.71 64.36,-71.62 114.03,-92.93 49.66,-21.32 109.33,-31.97 179.67,-31.97 114.46,0 200.78,25.36 258.54,76.3 57.97,50.94 88.24,118.72 91.22,203.76l-185.43 6.4c-7.89,-47.32 -24.72,-81.21 -50.51,-101.88 -25.79,-20.68 -64.58,-31.12 -116.16,-31.12 -53.29,0 -95.06,11.08 -125.12,33.25 -19.39,14.28 -29.2,33.25 -29.2,57.12 0,21.74 9.17,40.28 27.5,55.63 23.23,19.82 79.71,40.28 169.44,61.59 89.74,21.11 156.02,43.27 198.86,65.87 43.06,22.8 76.73,53.71 101.03,93.14 24.3,39.43 36.45,88.02 36.45,145.79 0,52.43 -14.5,101.66 -43.7,147.49 -29.2,45.82 -70.33,79.92 -123.62,102.09 -53.28,22.38 -119.78,33.46 -199.28,33.46 -115.74,0 -204.62,-26.64 -266.64,-80.14 -62.02,-53.28 -98.9,-131.08 -111.04,-233.17zm899.02 296.69l0 -915.65 277.72 0 164.12 624.5 162.2 -624.5 278.36 0 0 915.65 -171.37 0 -0.64 -720.84 -180.53 720.84 -178.18 0 -179.68 -720.84 -0.64 720.84 -171.36 0zm1892.68 0l-199.71 0 -79.08 -208.45 -367.24 0 -76.09 208.45 -196.09 0 355.52 -915.65 195.87 0 366.82 915.65zm-338.9 -363.19l-127.24 -338.89 -123.62 338.89 250.86 0zm437.58 363.19l0 -915.65 389.41 0c97.83,0 169.02,8.31 213.35,24.72 44.55,16.42 79.93,45.62 106.57,87.61 26.64,42.2 40.07,90.16 40.07,144.29 0,68.85 -20.03,125.54 -60.32,170.3 -40.28,44.76 -100.39,72.89 -180.53,84.62 39.86,23.23 72.68,48.81 98.47,76.73 26.01,27.92 60.96,77.58 104.87,148.77l111.68 178.61 -221.02 0 -132.58 -199.93c-47.53,-70.97 -80.14,-115.73 -97.83,-134.27 -17.47,-18.33 -36.02,-31.12 -55.62,-37.94 -19.83,-6.82 -50.95,-10.23 -93.57,-10.23l-37.52 0 0 382.37 -185.43 0zm185.43 -528.16l136.84 0c88.67,0 143.87,-3.84 166.04,-11.3 21.95,-7.46 39.42,-20.46 51.79,-38.79 12.57,-18.33 18.76,-41.35 18.76,-68.84 0,-30.91 -8.32,-55.63 -24.73,-74.81 -16.41,-18.98 -39.64,-30.91 -69.49,-35.81 -15.13,-2.13 -60.1,-3.2 -134.91,-3.2l-144.3 0 0 232.75zm944 528.16l0 -760.91 -271.11 0 0 -154.74 726.38 0 0 154.74 -269.84 0 0 760.91 -185.43 0zm-4019.81 1131.98l180.31 -17.9c10.87,60.32 32.61,104.44 65.65,132.78 33.03,28.35 77.58,42.42 133.64,42.42 59.25,0 104.01,-12.58 134.06,-37.73 30.05,-25.15 45.19,-54.56 45.19,-88.24 0,-21.74 -6.4,-40.07 -18.97,-55.41 -12.58,-15.14 -34.74,-28.35 -66.29,-39.43 -21.52,-7.67 -70.55,-20.89 -147.28,-40.07 -98.68,-24.73 -167.95,-54.99 -207.81,-91.01 -56.06,-50.52 -83.98,-112.12 -83.98,-184.8 0,-46.67 13.22,-90.58 39.44,-131.29 26.42,-40.71 64.36,-71.61 114.03,-92.93 49.66,-21.31 109.33,-31.97 179.67,-31.97 114.46,0 200.78,25.37 258.54,76.31 57.97,50.94 88.24,118.71 91.22,203.76l-185.43 6.39c-7.89,-47.32 -24.72,-81.21 -50.51,-101.88 -25.79,-20.68 -64.58,-31.12 -116.16,-31.12 -53.29,0 -95.06,11.09 -125.12,33.25 -19.39,14.28 -29.2,33.25 -29.2,57.12 0,21.74 9.17,40.29 27.5,55.63 23.23,19.82 79.71,40.28 169.44,61.6 89.74,21.1 156.02,43.27 198.86,65.86 43.06,22.8 76.73,53.71 101.03,93.14 24.3,39.43 36.45,88.03 36.45,145.79 0,52.43 -14.5,101.67 -43.7,147.49 -29.2,45.83 -70.33,79.93 -123.62,102.1 -53.28,22.37 -119.78,33.46 -199.28,33.46 -115.74,0 -204.62,-26.65 -266.64,-80.14 -62.02,-53.29 -98.9,-131.08 -111.04,-233.18zm863.21 -155.59c0,-93.35 14.07,-171.79 41.99,-235.3 20.67,-46.68 49.24,-88.67 85.26,-125.76 36.02,-37.08 75.45,-64.58 118.29,-82.69 57.12,-24.09 122.98,-36.24 197.58,-36.24 135.13,0 242.98,41.99 324.18,125.75 81,83.98 121.49,200.57 121.49,349.98 0,148.13 -40.28,264.08 -120.63,347.63 -80.36,83.76 -187.99,125.54 -322.48,125.54 -136.2,0 -244.69,-41.56 -325.04,-124.9 -80.35,-83.13 -120.64,-197.79 -120.64,-344.01zm190.55 -6.18c0,103.8 24.08,182.45 72.04,236.16 47.96,53.5 108.91,80.35 182.66,80.35 73.96,0 134.49,-26.64 182.02,-79.71 47.32,-53.29 70.97,-133 70.97,-239.36 0,-105.08 -23.01,-183.51 -69.26,-235.09 -46.04,-51.79 -107.21,-77.58 -183.73,-77.58 -76.31,0 -137.9,26.21 -184.58,78.43 -46.68,52.44 -70.12,131.3 -70.12,236.8zm842.54 458.46l0 -915.64 629.18 0 0 154.73 -443.75 0 0 217.41 383.65 0 0 154.74 -383.65 0 0 388.76 -185.43 0zm987.05 0l0 -760.91 -271.11 0 0 -154.73 726.37 0 0 154.73 -269.83 0 0 760.91 -185.43 0zm-2249.05 1091.06l179.03 55c-27.49,100.81 -73.31,175.62 -137.25,224.64 -63.95,48.81 -144.94,73.32 -243.2,73.32 -121.7,0 -221.66,-41.56 -300.1,-124.68 -78.22,-83.13 -117.44,-196.73 -117.44,-341.03 0,-152.39 39.43,-270.9 118.08,-355.3 78.65,-84.4 182.23,-126.6 310.54,-126.6 112.12,0 203.13,33.25 273.04,99.53 41.77,39.22 72.89,95.49 93.78,169.02l-182.88 43.48c-10.87,-47.32 -33.46,-84.83 -67.78,-112.32 -34.52,-27.5 -76.3,-41.14 -125.32,-41.14 -67.99,0 -123.19,24.3 -165.4,73.11 -42.41,48.6 -63.51,127.46 -63.51,236.58 0,115.52 20.89,198.01 62.45,247.03 41.77,49.24 95.91,73.75 162.62,73.75 49.24,0 91.65,-15.56 127.03,-46.89 35.39,-31.33 60.96,-80.36 76.31,-147.5zm299.46 -114.66c0,-93.36 14.07,-171.79 41.99,-235.31 20.67,-46.68 49.23,-88.67 85.26,-125.75 36.02,-37.09 75.44,-64.58 118.29,-82.7 57.12,-24.09 122.98,-36.23 197.58,-36.23 135.13,0 242.98,41.98 324.18,125.75 80.99,83.98 121.49,200.56 121.49,349.97 0,148.13 -40.28,264.08 -120.64,347.63 -80.35,83.77 -187.98,125.54 -322.47,125.54 -136.2,0 -244.69,-41.56 -325.04,-124.9 -80.36,-83.12 -120.64,-197.79 -120.64,-344zm190.55 -6.18c0,103.79 24.08,182.44 72.04,236.15 47.95,53.5 108.91,80.36 182.66,80.36 73.96,0 134.49,-26.65 182.02,-79.72 47.32,-53.28 70.97,-133 70.97,-239.35 0,-105.08 -23.01,-183.52 -69.27,-235.1 -46.03,-51.79 -107.2,-77.58 -183.72,-77.58 -76.31,0 -137.9,26.22 -184.58,78.44 -46.68,52.43 -70.12,131.29 -70.12,236.8zm839.98 458.46l0 -915.65 277.72 0 164.12 624.5 162.2 -624.5 278.36 0 0 915.65 -171.37 0 -0.64 -720.84 -180.53 720.84 -178.18 0 -179.68 -720.84 -0.64 720.84 -171.36 0zm1067.83 0l0 -915.65 296.48 0c112.32,0 185.43,4.48 219.53,13.64 52.43,13.86 96.34,43.69 131.72,89.73 35.38,46.04 53.07,105.51 53.07,178.4 0,56.27 -10.23,103.37 -30.48,141.74 -20.46,38.36 -46.25,68.42 -77.58,90.37 -31.33,21.74 -63.3,36.23 -95.7,43.27 -44.12,8.74 -107.85,13.21 -191.4,13.21l-120.21 0 0 345.29 -185.43 0zm185.43 -760.91l0 260.88 100.82 0c72.68,0 121.06,-4.9 145.57,-14.49 24.51,-9.59 43.69,-24.51 57.55,-45.19 13.85,-20.46 20.89,-44.12 20.89,-71.4 0,-33.46 -9.81,-60.96 -29.2,-82.7 -19.61,-21.74 -44.13,-35.38 -74.18,-40.92 -21.95,-4.05 -66.07,-6.18 -132.57,-6.18l-88.88 0zm1397.56 760.91l-199.72 0 -79.07 -208.45 -367.24 0 -76.09 208.45 -196.09 0 355.52 -915.65 195.87 0 366.82 915.65zm-338.9 -363.19l-127.24 -338.89 -123.62 338.89 250.86 0zm437.58 363.19l0 -915.65 179.46 0 376.83 613.63 0 -613.63 171.37 0 0 915.65 -185.22 0 -371.08 -601.91 0 601.91 -171.36 0zm1163.96 0l0 -385.36 -335.7 -530.29 216.76 0 216.55 362.55 210.8 -362.55 212.71 0 -335.69 531.57 0 384.08 -185.43 0z"/>
  <path class="fil2" d="M9365.06 7055.28c484.26,0 928.4,171.73 1274.85,457.63l-475.21 402.22c-226.5,-158.55 -502.18,-251.65 -799.64,-251.65 -771.04,0 -1396.09,625.06 -1396.09,1396.1 0,771.04 625.05,1396.09 1396.09,1396.09 394.13,0 750.07,-163.35 1003.92,-426.01l394.28 465.83c-361.09,351.7 -854.32,568.38 -1398.2,568.38 -1106.94,0 -2004.3,-897.35 -2004.3,-2004.29 0,-1106.95 897.36,-2004.3 2004.3,-2004.3z"/>
  <path class="fil3" d="M5289.36 7630.3c-183.11,380.36 -117.51,852.93 196.79,1167.23l270.21 270.22 -5.63 -1.25 741.14 741.14c129.11,129.11 129.12,340.41 0,469.53 -129.12,129.12 -340.41,129.12 -469.53,0l-1967.05 -1967.05c-129.12,-129.12 -129.12,-340.41 0,-469.53 129.12,-129.12 340.42,-129.11 469.53,0l150.32 150.33 475.04 -499.8 -137.95 -137.94c-397.19,-397.19 -1047.16,-397.2 -1444.36,0 -397.19,397.19 -397.19,1047.15 0.01,1444.35l1967.05 1967.05c397.2,397.2 1047.16,397.2 1444.35,0.01 82.9,-82.9 148.5,-176.81 196.79,-277.14 183.11,-380.36 117.51,-852.93 -196.79,-1167.22 3.16,3.03 6.19,6.22 9.24,9.35l7.69 3.19 -1022.65 -1022.65c-129.12,-129.12 -129.12,-340.41 0,-469.53 129.12,-129.12 340.42,-129.11 469.53,0l127.7 127.7 475.04 -499.79 -115.33 -115.32c-397.18,-397.19 -1047.16,-397.2 -1444.36,0 -82.89,82.89 -148.49,176.8 -196.78,277.12z"/>
  <path class="fil2" d="M4784.79 10889.05c-138.95,97.23 -305.34,159.01 -486.88,171.22 -530.78,35.72 -990.01,-365.61 -1025.72,-896.39 -15.24,-226.47 49.13,-439.88 169.13,-612.96l1343.47 1338.13z"/>
 </g>
</svg>
