<?xml version="1.0" encoding="utf-8"?>
<!-- Generator: Adobe Illustrator 27.6.1, SVG Export Plug-In . SVG Version: 6.00 Build 0)  -->
<svg version="1.1" id="Слой_1" xmlns:xodm="http://www.corel.com/coreldraw/odm/2003"
	 xmlns="http://www.w3.org/2000/svg" xmlns:xlink="http://www.w3.org/1999/xlink" x="0px" y="0px" viewBox="0 0 420 148"
	 style="enable-background:new 0 0 420 148;" xml:space="preserve">
<style type="text/css">
	.st0{fill:#2B2A29;}
	.st1{fill-rule:evenodd;clip-rule:evenodd;fill:#2B2A29;}
	.st2{fill-rule:evenodd;clip-rule:evenodd;fill:url(#SVGID_1_);}
</style>
<g id="Слой_x0020_1">
	<path class="st0" d="M11.9,132.9h1.8l3.6,9.3h-1.8l-0.7-1.9h-3.8l-0.7,1.9H8.3C8.3,142.2,11.9,132.9,11.9,132.9z M12.8,135.3
		l-1.3,3.2H14L12.8,135.3z M30.8,142.2v-9.3h1.5c0.9,0,1.5,0.1,1.9,0.2c0.6,0.1,1,0.4,1.3,0.8c0.3,0.4,0.5,0.9,0.5,1.4
		c0,0.4-0.1,0.7-0.2,1s-0.4,0.6-0.7,0.8c0.6,0.3,1,0.6,1.2,1c0.3,0.4,0.4,0.9,0.4,1.4c0,0.5-0.1,1-0.4,1.4c-0.3,0.4-0.6,0.8-1.1,1
		c-0.4,0.2-1,0.3-1.8,0.3H30.8z M32.5,134.5v2h0.4c0.4,0,0.8-0.1,1-0.3c0.2-0.2,0.3-0.4,0.3-0.7c0-0.3-0.1-0.5-0.3-0.7
		c-0.2-0.2-0.5-0.3-0.9-0.3H32.5z M32.5,138.1v2.4H33c0.7,0,1.3-0.1,1.5-0.3c0.3-0.2,0.4-0.5,0.4-0.8c0-0.4-0.2-0.7-0.5-1
		c-0.3-0.2-0.8-0.3-1.5-0.3L32.5,138.1L32.5,138.1z M49.6,132.9h5.2v1.8H53v7.6h-1.8v-7.6h-1.7L49.6,132.9L49.6,132.9z M72.5,132.6
		c1.3,0,2.5,0.5,3.4,1.4c1,1,1.4,2.1,1.4,3.5c0,1.4-0.5,2.5-1.4,3.5c-0.9,0.9-2.1,1.4-3.4,1.4c-1.4,0-2.6-0.5-3.5-1.5
		c-0.9-1-1.4-2.1-1.4-3.5c0-0.9,0.2-1.7,0.6-2.5c0.4-0.7,1-1.3,1.8-1.8C70.8,132.8,71.6,132.6,72.5,132.6L72.5,132.6z M72.4,134.4
		c-0.9,0-1.6,0.3-2.2,0.9c-0.6,0.6-0.9,1.4-0.9,2.3c0,1,0.4,1.8,1.1,2.4c0.6,0.5,1.2,0.7,2,0.7c0.8,0,1.6-0.3,2.1-0.9
		c0.6-0.6,0.9-1.4,0.9-2.3c0-0.9-0.3-1.6-0.9-2.3C74,134.7,73.3,134.4,72.4,134.4z M92,132.9h1.7l2.2,6.5l2.2-6.5h1.7l1.6,9.3h-1.7
		l-1-5.9l-2,5.9h-1.6l-2-5.9l-1,5.9h-1.7L92,132.9L92,132.9z M117.8,132.9h1.8l3.6,9.3h-1.8l-0.7-1.9h-3.8l-0.7,1.9h-1.8
		L117.8,132.9z M118.7,135.3l-1.3,3.2h2.5L118.7,135.3L118.7,135.3z M135.8,132.9h5.2v1.8h-1.7v7.6h-1.8v-7.6h-1.7V132.9z
		 M161.1,132.9v9.3h-1.8v-5.8l-3.5,5.8h-1.5v-9.3h1.8v6l3.6-6H161.1z M175.8,139.8c0.5,0.7,1,1,1.7,1c0.4,0,0.8-0.1,1-0.4
		c0.3-0.2,0.4-0.6,0.4-0.9c0-0.4-0.1-0.7-0.4-1c-0.3-0.3-0.8-0.4-1.6-0.4h-0.4v-1.6h0.4c0.5,0,0.8-0.1,1.1-0.3
		c0.2-0.2,0.4-0.5,0.4-0.9c0-0.3-0.1-0.6-0.3-0.8c-0.2-0.2-0.5-0.3-0.8-0.3c-0.4,0-0.8,0.2-1.2,0.6l-1-1.2c0.6-0.5,1-0.8,1.4-0.9
		c0.4-0.1,0.7-0.1,1-0.1c0.8,0,1.4,0.2,1.9,0.7c0.5,0.4,0.8,1,0.8,1.8c0,0.3-0.1,0.7-0.2,1c-0.1,0.3-0.4,0.7-1,1
		c1.1,0.5,1.6,1.3,1.6,2.5c0,0.9-0.3,1.6-0.9,2.1c-0.6,0.5-1.3,0.8-2.2,0.8c-0.6,0-1.1-0.1-1.6-0.3c-0.5-0.2-1-0.7-1.5-1.4
		L175.8,139.8L175.8,139.8z M197.3,132.9h1.8l3.6,9.3h-1.8l-0.7-1.9h-3.8l-0.7,1.9h-1.8L197.3,132.9L197.3,132.9z M198.2,135.3
		l-1.3,3.2h2.5L198.2,135.3L198.2,135.3z M216.2,142.2v-9.3h1.8v7.7h3.1v-7.7h1.8v7.7h1.9v3h-1.7v-1.4L216.2,142.2L216.2,142.2z
		 M244.9,132.9v9.3h-1.8v-5.8l-3.5,5.8h-1.5v-9.3h1.8v6l3.6-6H244.9z M264.7,132.9v9.3h-1.8v-3.8h-0.4l-1.9,3.8h-1.9l2.1-4.1
		c-1.2-0.3-1.8-1.2-1.8-2.4c0-0.5,0.1-0.9,0.2-1.2c0.1-0.3,0.3-0.6,0.6-0.9c0.2-0.2,0.5-0.4,0.8-0.5c0.3-0.1,0.6-0.2,0.7-0.2
		c0.2,0,0.7,0,1.6-0.1L264.7,132.9L264.7,132.9z M262.9,136.7v-2.1h-0.5c-0.4,0-0.8,0-1,0.1c-0.2,0.1-0.4,0.2-0.5,0.3
		c-0.1,0.2-0.2,0.4-0.2,0.6c0,0.4,0.1,0.7,0.4,0.8c0.2,0.2,0.6,0.2,1.2,0.2H262.9L262.9,136.7z M303.3,140.1l-3.3-7.2h2l2.2,5.2
		l1.8-5.2h1.8l-2.5,6.7c-0.4,1.1-0.9,1.9-1.4,2.3c-0.5,0.4-1,0.6-1.6,0.6c-0.9,0-1.8-0.5-2.6-1.4l1.2-1.2c0.5,0.5,0.9,0.8,1.4,0.8
		c0.2,0,0.4,0,0.5-0.1C303,140.5,303.2,140.3,303.3,140.1z M329.8,134.5l-1.2,1.2c-0.8-0.9-1.8-1.3-2.9-1.3c-0.9,0-1.6,0.3-2.3,0.9
		c-0.6,0.6-0.9,1.4-0.9,2.3c0,0.6,0.1,1.2,0.4,1.7c0.3,0.5,0.7,0.9,1.1,1.1c0.5,0.3,1,0.4,1.7,0.4c0.5,0,1-0.1,1.4-0.3
		c0.4-0.2,0.9-0.5,1.4-1.1l1.2,1.3c-0.7,0.7-1.3,1.1-2,1.4c-0.6,0.3-1.3,0.4-2.1,0.4c-1.5,0-2.6-0.5-3.6-1.4
		c-0.9-0.9-1.4-2.1-1.4-3.5c0-0.9,0.2-1.8,0.6-2.5c0.4-0.7,1-1.3,1.8-1.7c0.8-0.4,1.6-0.7,2.5-0.7c0.8,0,1.5,0.2,2.2,0.5
		C328.7,133.4,329.3,133.9,329.8,134.5L329.8,134.5z M343.5,132.9h6.7v9.3h-1.8v-7.7h-3.1v7.7h-1.8L343.5,132.9L343.5,132.9z
		 M364.5,132.9h5.1v1.7h-3.3v1.7h3.3v1.7h-3.3v2.5h3.3v1.7h-5.1V132.9L364.5,132.9z M382.8,132.9h2l2,3l2-3h2l-3,4.5l3.1,4.8h-2
		l-2.1-3.3l-2.1,3.3h-2l3.1-4.8L382.8,132.9L382.8,132.9z M407.2,132.9h1.8l3.6,9.3h-1.8l-0.7-1.9h-3.8l-0.7,1.9h-1.8L407.2,132.9z
		 M408.1,135.3l-1.3,3.2h2.5L408.1,135.3z"/>
	<path class="st0" d="M234.6,28.7l5.1-0.5c0.3,1.7,0.9,3,1.9,3.8c0.9,0.8,2.2,1.2,3.8,1.2c1.7,0,2.9-0.4,3.8-1.1
		c0.9-0.7,1.3-1.5,1.3-2.5c0-0.6-0.2-1.1-0.5-1.6c-0.4-0.4-1-0.8-1.9-1.1c-0.6-0.2-2-0.6-4.2-1.1c-2.8-0.7-4.8-1.6-5.9-2.6
		c-1.6-1.4-2.4-3.2-2.4-5.2c0-1.3,0.4-2.6,1.1-3.7c0.7-1.2,1.8-2,3.2-2.6c1.4-0.6,3.1-0.9,5.1-0.9c3.2,0,5.7,0.7,7.3,2.2
		c1.6,1.4,2.5,3.4,2.6,5.8l-5.3,0.2c-0.2-1.3-0.7-2.3-1.4-2.9c-0.7-0.6-1.8-0.9-3.3-0.9c-1.5,0-2.7,0.3-3.5,0.9
		c-0.5,0.4-0.8,0.9-0.8,1.6c0,0.6,0.3,1.1,0.8,1.6c0.7,0.6,2.3,1.1,4.8,1.7c2.5,0.6,4.4,1.2,5.6,1.9c1.2,0.6,2.2,1.5,2.9,2.6
		c0.7,1.1,1,2.5,1,4.1c0,1.5-0.4,2.9-1.2,4.2c-0.8,1.3-2,2.3-3.5,2.9c-1.5,0.6-3.4,0.9-5.6,0.9c-3.3,0-5.8-0.8-7.6-2.3
		C236,33.8,234.9,31.6,234.6,28.7L234.6,28.7z M260,37.2v-26h7.9l4.7,17.7l4.6-17.7h7.9v26h-4.9l0-20.4l-5.1,20.4H270l-5.1-20.4
		l0,20.4H260L260,37.2z M313.7,37.2H308l-2.2-5.9h-10.4l-2.2,5.9h-5.6l10.1-26h5.6L313.7,37.2z M304.1,26.9l-3.6-9.6l-3.5,9.6H304.1
		z M316.5,37.2v-26h11c2.8,0,4.8,0.2,6,0.7c1.3,0.5,2.3,1.3,3,2.5c0.8,1.2,1.1,2.6,1.1,4.1c0,2-0.6,3.6-1.7,4.8
		c-1.1,1.3-2.8,2.1-5.1,2.4c1.1,0.7,2.1,1.4,2.8,2.2c0.7,0.8,1.7,2.2,3,4.2l3.2,5.1h-6.3l-3.8-5.7c-1.3-2-2.3-3.3-2.8-3.8
		c-0.5-0.5-1-0.9-1.6-1.1c-0.6-0.2-1.4-0.3-2.7-0.3h-1.1v10.8H316.5z M321.8,22.2h3.9c2.5,0,4.1-0.1,4.7-0.3
		c0.6-0.2,1.1-0.6,1.5-1.1c0.4-0.5,0.5-1.2,0.5-2c0-0.9-0.2-1.6-0.7-2.1c-0.5-0.5-1.1-0.9-2-1c-0.4-0.1-1.7-0.1-3.8-0.1h-4.1
		L321.8,22.2L321.8,22.2z M348.5,37.2V15.6h-7.7v-4.4h20.6v4.4h-7.6v21.6H348.5z M234.6,69.2l5.1-0.5c0.3,1.7,0.9,3,1.9,3.8
		c0.9,0.8,2.2,1.2,3.8,1.2c1.7,0,2.9-0.4,3.8-1.1c0.9-0.7,1.3-1.5,1.3-2.5c0-0.6-0.2-1.1-0.5-1.6c-0.4-0.4-1-0.8-1.9-1.1
		c-0.6-0.2-2-0.6-4.2-1.1c-2.8-0.7-4.8-1.6-5.9-2.6c-1.6-1.4-2.4-3.2-2.4-5.2c0-1.3,0.4-2.6,1.1-3.7c0.7-1.2,1.8-2,3.2-2.6
		c1.4-0.6,3.1-0.9,5.1-0.9c3.2,0,5.7,0.7,7.3,2.2c1.6,1.4,2.5,3.4,2.6,5.8l-5.3,0.2c-0.2-1.3-0.7-2.3-1.4-2.9
		c-0.7-0.6-1.8-0.9-3.3-0.9c-1.5,0-2.7,0.3-3.5,0.9c-0.5,0.4-0.8,0.9-0.8,1.6c0,0.6,0.3,1.1,0.8,1.6c0.7,0.6,2.3,1.1,4.8,1.7
		c2.5,0.6,4.4,1.2,5.6,1.9c1.2,0.6,2.2,1.5,2.9,2.6s1,2.5,1,4.1c0,1.5-0.4,2.9-1.2,4.2c-0.8,1.3-2,2.3-3.5,2.9
		c-1.5,0.6-3.4,0.9-5.6,0.9c-3.3,0-5.8-0.8-7.6-2.3C236,74.3,234.9,72.1,234.6,69.2L234.6,69.2z M259,64.8c0-2.6,0.4-4.9,1.2-6.7
		c0.6-1.3,1.4-2.5,2.4-3.6c1-1.1,2.1-1.8,3.4-2.3c1.6-0.7,3.5-1,5.6-1c3.8,0,6.9,1.2,9.2,3.6c2.3,2.4,3.4,5.7,3.4,9.9
		c0,4.2-1.1,7.5-3.4,9.9c-2.3,2.4-5.3,3.6-9.1,3.6c-3.9,0-6.9-1.2-9.2-3.5C260.2,72.2,259,69,259,64.8z M264.4,64.7
		c0,2.9,0.7,5.2,2,6.7c1.4,1.5,3.1,2.3,5.2,2.3c2.1,0,3.8-0.8,5.2-2.3c1.3-1.5,2-3.8,2-6.8c0-3-0.7-5.2-2-6.7
		c-1.3-1.5-3-2.2-5.2-2.2c-2.2,0-3.9,0.7-5.2,2.2C265.1,59.4,264.4,61.7,264.4,64.7L264.4,64.7z M288.3,77.7v-26h17.8v4.4h-12.6v6.2
		h10.9v4.4h-10.9v11L288.3,77.7L288.3,77.7z M316.3,77.7V56.1h-7.7v-4.4h20.6v4.4h-7.6v21.6H316.3z M252.5,108.6l5.1,1.6
		c-0.8,2.9-2.1,5-3.9,6.4c-1.8,1.4-4.1,2.1-6.9,2.1c-3.4,0-6.3-1.2-8.5-3.5c-2.2-2.4-3.3-5.6-3.3-9.7c0-4.3,1.1-7.7,3.3-10.1
		c2.2-2.4,5.2-3.6,8.8-3.6c3.2,0,5.8,0.9,7.7,2.8c1.2,1.1,2.1,2.7,2.7,4.8l-5.2,1.2c-0.3-1.3-0.9-2.4-1.9-3.2
		c-1-0.8-2.2-1.2-3.6-1.2c-1.9,0-3.5,0.7-4.7,2.1c-1.2,1.4-1.8,3.6-1.8,6.7c0,3.3,0.6,5.6,1.8,7c1.2,1.4,2.7,2.1,4.6,2.1
		c1.4,0,2.6-0.4,3.6-1.3C251.4,111.9,252.1,110.5,252.5,108.6L252.5,108.6z M261,105.3c0-2.6,0.4-4.9,1.2-6.7
		c0.6-1.3,1.4-2.5,2.4-3.6c1-1.1,2.1-1.8,3.4-2.3c1.6-0.7,3.5-1,5.6-1c3.8,0,6.9,1.2,9.2,3.6c2.3,2.4,3.4,5.7,3.4,9.9
		c0,4.2-1.1,7.5-3.4,9.9c-2.3,2.4-5.3,3.6-9.1,3.6c-3.9,0-6.9-1.2-9.2-3.5C262.2,112.7,261,109.5,261,105.3L261,105.3z M266.4,105.2
		c0,2.9,0.7,5.2,2,6.7c1.4,1.5,3.1,2.3,5.2,2.3c2.1,0,3.8-0.8,5.2-2.3c1.3-1.5,2-3.8,2-6.8c0-3-0.7-5.2-2-6.7
		c-1.3-1.5-3-2.2-5.2-2.2c-2.2,0-3.9,0.7-5.2,2.2C267.1,99.9,266.4,102.2,266.4,105.2L266.4,105.2z M290.2,118.2v-26h7.9l4.7,17.7
		l4.6-17.7h7.9v26h-4.9l0-20.4l-5.1,20.4h-5.1l-5.1-20.4l0,20.4H290.2L290.2,118.2z M320.5,118.2v-26h8.4c3.2,0,5.3,0.1,6.2,0.4
		c1.5,0.4,2.7,1.2,3.7,2.5s1.5,3,1.5,5.1c0,1.6-0.3,2.9-0.9,4c-0.6,1.1-1.3,1.9-2.2,2.6c-0.9,0.6-1.8,1-2.7,1.2
		c-1.3,0.2-3.1,0.4-5.4,0.4h-3.4v9.8H320.5z M325.8,96.6v7.4h2.9c2.1,0,3.4-0.1,4.1-0.4c0.7-0.3,1.2-0.7,1.6-1.3
		c0.4-0.6,0.6-1.3,0.6-2c0-0.9-0.3-1.7-0.8-2.3c-0.6-0.6-1.3-1-2.1-1.2c-0.6-0.1-1.9-0.2-3.8-0.2L325.8,96.6L325.8,96.6z
		 M365.4,118.2h-5.7l-2.2-5.9h-10.4l-2.2,5.9h-5.6l10.1-26h5.6L365.4,118.2z M355.8,107.9l-3.6-9.6l-3.5,9.6H355.8z M368.2,118.2
		v-26h5.1l10.7,17.4V92.2h4.9v26h-5.3L373,101.1v17.1H368.2L368.2,118.2z M401.2,118.2v-10.9l-9.5-15h6.1l6.1,10.3l6-10.3h6
		l-9.5,15.1v10.9H401.2L401.2,118.2z"/>
	<path class="st1" d="M179.5,5c13.7,0,26.3,4.9,36.1,13l-13.5,11.4c-6.4-4.5-14.2-7.1-22.7-7.1c-21.9,0-39.6,17.7-39.6,39.6
		s17.7,39.6,39.6,39.6c11.2,0,21.3-4.6,28.5-12.1l11.2,13.2c-10.2,10-24.2,16.1-39.6,16.1c-31.4,0-56.8-25.4-56.8-56.8
		C122.7,30.4,148.1,5,179.5,5L179.5,5z"/>

		<linearGradient id="SVGID_1_" gradientUnits="userSpaceOnUse" x1="27142.3926" y1="-10498.4238" x2="29452.5215" y2="-13772.7031" gradientTransform="matrix(2.834646e-02 0 0 -2.834646e-02 -725.8252 -291.2583)">
		<stop  offset="0" style="stop-color:#0FA85D"/>
		<stop  offset="1" style="stop-color:#04613F"/>
	</linearGradient>
	<path class="st2" d="M63.9,21.3c-5.2,10.8-3.3,24.2,5.6,33.1l7.7,7.7L77,62l21,21c3.7,3.7,3.7,9.6,0,13.3c-3.7,3.7-9.6,3.7-13.3,0
		L29,40.6c-3.7-3.7-3.7-9.6,0-13.3c3.7-3.7,9.6-3.7,13.3,0l4.3,4.3L60,17.3l-3.9-3.9c-11.3-11.3-29.7-11.3-40.9,0
		c-11.3,11.3-11.3,29.7,0,40.9l55.8,55.8c11.3,11.3,29.7,11.3,40.9,0c2.3-2.3,4.2-5,5.6-7.9c5.2-10.8,3.3-24.2-5.6-33.1
		c0.1,0.1,0.2,0.2,0.3,0.3l0.2,0.1l-29-29c-3.7-3.7-3.7-9.6,0-13.3c3.7-3.7,9.6-3.7,13.3,0l3.6,3.6l13.5-14.2l-3.3-3.3
		c-11.3-11.3-29.7-11.3-40.9,0C67.2,15.8,65.3,18.4,63.9,21.3L63.9,21.3z"/>
	<path class="st1" d="M49.6,113.7c-3.9,2.8-8.7,4.5-13.8,4.9c-15,1-28.1-10.4-29.1-25.4c-0.4-6.4,1.4-12.5,4.8-17.4L49.6,113.7z"/>
</g>
</svg>
