<svg width="32" height="32" viewBox="0 0 43 43" fill="none" xmlns="http://www.w3.org/2000/svg">
<path d="M21.6109 42.7765C33.4233 42.7765 42.9992 33.2007 42.9992 21.3883C42.9992 9.57585 33.4233 0 21.6109 0C9.79851 0 0.222656 9.57585 0.222656 21.3883C0.222656 33.2007 9.79851 42.7765 21.6109 42.7765Z" fill="url(#paint0_linear)"/>
<path fill-rule="evenodd" clip-rule="evenodd" d="M9.90537 21.1625C16.1405 18.4459 20.2982 16.655 22.3785 15.7898C28.3183 13.3192 29.5525 12.8901 30.357 12.8759C30.5339 12.8728 30.9295 12.9166 31.1858 13.1246C31.4021 13.3001 31.4617 13.5373 31.4902 13.7038C31.5187 13.8702 31.5541 14.2494 31.5259 14.5458C31.2041 17.9277 29.8113 26.1349 29.1027 29.9228C28.8029 31.5256 28.2126 32.063 27.641 32.1156C26.399 32.2299 25.4558 31.2948 24.2528 30.5062C22.3704 29.2722 21.3069 28.5041 19.4797 27.3C17.368 25.9084 18.7369 25.1435 19.9404 23.8936C20.2553 23.5665 25.7278 18.5888 25.8338 18.1373C25.847 18.0808 25.8593 17.8703 25.7342 17.7591C25.6092 17.648 25.4246 17.686 25.2914 17.7162C25.1026 17.759 22.0954 19.7467 16.2697 23.6792C15.4161 24.2653 14.643 24.5509 13.9502 24.536C13.1866 24.5195 11.7176 24.1042 10.6255 23.7492C9.28608 23.3138 8.22152 23.0836 8.31422 22.3441C8.3625 21.959 8.89289 21.5651 9.90537 21.1625Z" fill="white"/>
<defs>
<linearGradient id="paint0_linear" x1="21.6109" y1="0" x2="21.6109" y2="42.4593" gradientUnits="userSpaceOnUse">
<stop stop-color="#2AABEE"/>
<stop offset="1" stop-color="#229ED9"/>
</linearGradient>
</defs>
</svg>
