<svg width="32" height="32" viewBox="0 0 43 43" fill="none" xmlns="http://www.w3.org/2000/svg">
<circle cx="21.4996" cy="21.3883" r="21.3883" fill="#25D245"/>
<path fill-rule="evenodd" clip-rule="evenodd" d="M30.703 12.0859C28.2477 9.63056 24.9848 8.2793 21.5078 8.2793C14.3395 8.2793 8.50597 14.1128 8.50597 21.2811C8.50597 23.5717 9.09921 25.8128 10.2363 27.7738L8.39062 34.4972L15.2788 32.6845C17.1739 33.7227 19.3161 34.2665 21.4913 34.2665C28.6596 34.2665 34.4931 28.4329 34.4931 21.2646C34.5096 17.8041 33.1584 14.5413 30.703 12.0859ZM21.5078 32.0748C19.5633 32.0748 17.6682 31.5475 16.0039 30.5752L15.6084 30.3445L11.5216 31.4156L12.6092 27.4277L12.3456 27.0158C11.2579 25.302 10.6977 23.308 10.6977 21.2646C10.6977 15.3158 15.5424 10.4545 21.5078 10.4545C24.3916 10.4545 27.1106 11.5751 29.154 13.6184C31.1974 15.6618 32.3179 18.3808 32.3179 21.2646C32.3015 27.23 27.4567 32.0748 21.5078 32.0748ZM27.4402 23.9837C27.7698 24.1484 27.984 24.2308 28.0664 24.3627C28.1488 24.4945 28.1488 25.1537 27.8851 25.9117C27.6215 26.6697 26.3196 27.3618 25.6934 27.4607C25.1332 27.5431 24.4246 27.576 23.6501 27.3289C23.1722 27.1806 22.5789 26.9828 21.8044 26.6368C18.5416 25.236 16.4158 21.9568 16.251 21.7261C16.0862 21.5118 14.9327 19.9628 14.9327 18.3644C14.9327 16.7659 15.7732 15.9749 16.0698 15.6618C16.3664 15.3323 16.7124 15.2499 16.9432 15.2499C17.1574 15.2499 17.3716 15.2499 17.5693 15.2663C17.7671 15.2828 18.0308 15.1839 18.2944 15.8266C18.5581 16.4693 19.2172 18.0677 19.2996 18.2325C19.382 18.3973 19.4315 18.5786 19.3326 18.8093C19.2172 19.0235 19.1678 19.1553 19.003 19.3531C18.8382 19.5508 18.657 19.7815 18.5086 19.9299C18.3439 20.0946 18.1791 20.2594 18.3603 20.589C18.5581 20.9186 19.2008 21.9732 20.173 22.8466C21.4089 23.9507 22.4636 24.2968 22.7931 24.4615C23.1227 24.6263 23.304 24.5934 23.5017 24.3791C23.6995 24.1649 24.3092 23.4234 24.5234 23.1103C24.7377 22.7807 24.9519 22.8466 25.2485 22.9455C25.5122 23.0444 27.1106 23.8189 27.4402 23.9837Z" fill="white"/>
</svg>
