<svg width="32" height="32" viewBox="0 0 32 32" fill="none" xmlns="http://www.w3.org/2000/svg">
<circle cx="16.0863" cy="15.6732" r="15.6732" fill="url(#paint0_linear)"/>
<path fill-rule="evenodd" clip-rule="evenodd" d="M20.814 6.75815H11.8141C9.26195 6.75815 7.24707 8.77303 7.24707 11.3252V20.3922C7.24707 22.9443 9.32912 24.9593 11.8141 24.9593H20.8811C23.4332 24.9593 25.4482 22.9443 25.4482 20.3922V11.3252C25.4482 8.8402 23.3661 6.75815 20.814 6.75815ZM23.5677 20.3922C23.5677 21.8026 22.2915 23.1459 20.814 23.1459H11.747C10.3366 23.1459 8.9933 21.8697 8.9933 20.3922V11.3252C8.9933 9.91479 10.2694 8.57154 11.747 8.57154H20.8811C22.2915 8.57154 23.6348 9.84763 23.6348 11.3252V20.3922H23.5677ZM21.1498 9.84763C21.8214 9.84763 22.3586 10.3849 22.3586 11.0566C22.3586 11.7282 21.8214 12.2655 21.1498 12.2655C20.4781 12.2655 19.9409 11.7282 19.9409 11.0566C19.9409 10.3849 20.4781 9.84763 21.1498 9.84763ZM16.314 11.3252C18.799 11.3252 20.8811 13.3401 20.8811 15.8922C20.8811 18.3773 18.8663 20.4593 16.314 20.4593C13.829 20.4593 11.747 18.4445 11.747 15.8922C11.747 13.3401 13.829 11.3252 16.314 11.3252ZM16.314 18.5788C14.7693 18.5788 13.5604 17.3699 13.5604 15.8251C13.5604 14.2804 14.7693 13.0715 16.314 13.0715C17.8588 13.0715 19.0677 14.2804 19.0677 15.8251C19.0677 17.3699 17.8588 18.5788 16.314 18.5788Z" fill="white"/>
<defs>
<linearGradient id="paint0_linear" x1="7.93621" y1="28.2117" x2="28.2203" y2="5.56145" gradientUnits="userSpaceOnUse">
<stop stop-color="#4A76DF"/>
<stop offset="0.119792" stop-color="#9748BE"/>
<stop offset="0.270833" stop-color="#BD4697"/>
<stop offset="0.390625" stop-color="#D8447A"/>
<stop offset="0.505208" stop-color="#E94369"/>
<stop offset="0.572917" stop-color="#EF4363"/>
<stop offset="0.65625" stop-color="#EF545E"/>
<stop offset="0.807292" stop-color="#F08053"/>
<stop offset="1" stop-color="#F2C141"/>
</linearGradient>
</defs>
</svg>
