<svg width="42" height="46" viewBox="0 0 42 46" fill="none" xmlns="http://www.w3.org/2000/svg">
<path d="M0 0H41.9662V38.4789H16.1418L18.4003 34.5912L6.9054 46V38.4789H0V0ZM35.299 24.1603L35.7181 8.25978H31.6322L32.0543 24.1603H35.299ZM31.7769 30.2191H35.5523V26.475H31.7769V30.2191ZM6.60386 19.2409C6.60386 24.8541 10.34 30.4703 17.7611 30.4942C25.1821 30.5181 28.8278 24.8631 28.8278 19.2409C28.8278 13.6188 25.161 7.98764 17.7188 7.98764C10.3521 8.00858 6.60386 13.6248 6.60386 19.2409ZM17.7942 11.6839H17.8364C22.5014 11.6839 24.8052 15.4041 24.8052 19.1183C24.8052 22.8325 22.5014 26.5527 17.8364 26.5527H17.7942C13.1595 26.5288 10.7773 22.8236 10.7773 19.1183C10.7773 15.4131 13.1715 11.7078 17.8063 11.6839H17.7942Z" fill="#F0047F"/>
</svg>
